<svg xmlns="http://www.w3.org/2000/svg" xmlns:xlink="http://www.w3.org/1999/xlink" width="28" height="28" version="1.1" viewBox="0 0 28 28"><title>699ED11E-7F16-40A5-89DD-C9ADE30CCB4C</title><desc>Created with sketchtool.</desc><g id=".1" fill="none" fill-rule="evenodd" stroke="none" stroke-width="1"><g id="Markdown－编辑3" fill="#BFC6CE" transform="translate(-1247.000000, -18.000000)"><g id="heder_img"><path d="M5,7 L24,7 L24,21 L5,21 L5,7 Z M6,8 L23,8 L23,15 L6,15 L6,8 Z M9,11 C9.55228475,11 10,10.5522847 10,10 C10,9.44771525 9.55228475,9 9,9 C8.44771525,9 8,9.44771525 8,10 C8,10.5522847 8.44771525,11 9,11 Z M22,14 L10,14 L14.2570991,10.8078101 L15.778026,11.8338712 L19.2346782,8.98370162 L22,11.0150952 L22,14 Z" transform="translate(1247.000000, 18.000000)"/></g></g></g></svg>